EBGaramondVF-Expanded_Regular.ufo
<glyph name="exclam" format="1">
  <advance width="256"/>
  <unicode hex="0021"/>
  <outline>
    <contour>
      <point x="152" y="249" type="curve" smooth="yes"/>
      <point x="162" y="359"/>
      <point x="177" y="530"/>
      <point x="177" y="593" type="curve" smooth="yes"/>
      <point x="177" y="623"/>
      <point x="158" y="649"/>
      <point x="129" y="649" type="curve" smooth="yes"/>
      <point x="100" y="649"/>
      <point x="79" y="623"/>
      <point x="79" y="593" type="curve" smooth="yes"/>
      <point x="79" y="530"/>
      <point x="91" y="359"/>
      <point x="101" y="249" type="curve" smooth="yes"/>
      <point x="104" y="216"/>
      <point x="113" y="205"/>
      <point x="127" y="205" type="curve" smooth="yes"/>
      <point x="141" y="205"/>
      <point x="150" y="224"/>
    </contour>
    <contour>
      <point x="191" y="46" type="curve" smooth="yes"/>
      <point x="191" y="79"/>
      <point x="163" y="106"/>
      <point x="128" y="106" type="curve" smooth="yes"/>
      <point x="93" y="106"/>
      <point x="65" y="79"/>
      <point x="65" y="46" type="curve" smooth="yes"/>
      <point x="65" y="13"/>
      <point x="93" y="-14"/>
      <point x="128" y="-14" type="curve" smooth="yes"/>
      <point x="163" y="-14"/>
      <point x="191" y="13"/>
    </contour>
  </outline>
</glyph>
<glyph name="percent" format="1">
  <advance width="919"/>
  <unicode hex="0025"/>
  <outline>
    <contour>
      <point x="149" y="-48" type="curve" smooth="yes"/>
      <point x="789" y="643" type="line"/>
      <point x="790" y="644"/>
      <point x="790" y="647"/>
      <point x="790" y="648" type="curve" smooth="yes"/>
      <point x="790" y="654"/>
      <point x="785" y="662"/>
      <point x="778" y="663" type="curve" smooth="yes"/>
      <point x="760" y="665"/>
      <point x="746" y="664"/>
      <point x="734" y="650" type="curve" smooth="yes"/>
      <point x="93" y="-42" type="line"/>
      <point x="92" y="-43"/>
      <point x="92" y="-44"/>
      <point x="91" y="-45" type="curve" smooth="yes"/>
      <point x="90" y="-51"/>
      <point x="99" y="-59"/>
      <point x="108" y="-60" type="curve" smooth="yes"/>
      <point x="124" y="-63"/>
      <point x="137" y="-61"/>
    </contour>
    <contour>
      <point x="405" y="449" type="curve" smooth="yes"/>
      <point x="405" y="530"/>
      <point x="342" y="615"/>
      <point x="227" y="615" type="curve" smooth="yes"/>
      <point x="100" y="615"/>
      <point x="21" y="527"/>
      <point x="21" y="438" type="curve" smooth="yes"/>
      <point x="21" y="354"/>
      <point x="82" y="263"/>
      <point x="201" y="263" type="curve" smooth="yes"/>
      <point x="332" y="263"/>
      <point x="405" y="358"/>
    </contour>
    <contour>
      <point x="88" y="449" type="curve" smooth="yes"/>
      <point x="88" y="508"/>
      <point x="108" y="584"/>
      <point x="211" y="584" type="curve" smooth="yes"/>
      <point x="322" y="584"/>
      <point x="337" y="502"/>
      <point x="337" y="437" type="curve" smooth="yes"/>
      <point x="337" y="373"/>
      <point x="327" y="291"/>
      <point x="217" y="291" type="curve" smooth="yes"/>
      <point x="100" y="291"/>
      <point x="88" y="380"/>
    </contour>
    <contour>
      <point x="898" y="169" type="curve" smooth="yes"/>
      <point x="898" y="250"/>
      <point x="836" y="335"/>
      <point x="720" y="335" type="curve" smooth="yes"/>
      <point x="594" y="335"/>
      <point x="514" y="247"/>
      <point x="514" y="158" type="curve" smooth="yes"/>
      <point x="514" y="74"/>
      <point x="575" y="-17"/>
      <point x="695" y="-17" type="curve" smooth="yes"/>
      <point x="826" y="-17"/>
      <point x="898" y="78"/>
    </contour>
    <contour>
      <point x="581" y="169" type="curve" smooth="yes"/>
      <point x="581" y="228"/>
      <point x="602" y="304"/>
      <point x="704" y="304" type="curve" smooth="yes"/>
      <point x="816" y="304"/>
      <point x="831" y="222"/>
      <point x="831" y="157" type="curve" smooth="yes"/>
      <point x="831" y="93"/>
      <point x="821" y="11"/>
      <point x="711" y="11" type="curve" smooth="yes"/>
      <point x="593" y="11"/>
      <point x="581" y="100"/>
    </contour>
  </outline>
</glyph>
<glyph name="ampersand" format="1">
  <advance width="1038"/>
  <unicode hex="0026"/>
  <outline>
    <contour>
      <point x="574" y="112" type="curve"/>
      <point x="583" y="118" type="line"/>
      <point x="600" y="99" type="line" smooth="yes"/>
      <point x="671" y="21"/>
      <point x="708" y="-15"/>
      <point x="813" y="-15" type="curve" smooth="yes"/>
      <point x="890" y="-15"/>
      <point x="981" y="34"/>
      <point x="981" y="51" type="curve" smooth="yes"/>
      <point x="981" y="60"/>
      <point x="977" y="64"/>
      <point x="964" y="64" type="curve" smooth="yes"/>
      <point x="956" y="64"/>
      <point x="948" y="62"/>
      <point x="941" y="59" type="curve" smooth="yes"/>
      <point x="908" y="45"/>
      <point x="884" y="40"/>
      <point x="845" y="40" type="curve" smooth="yes"/>
      <point x="775" y="40"/>
      <point x="719" y="78"/>
      <point x="660" y="138" type="curve" smooth="yes"/>
      <point x="638" y="160" type="line"/>
      <point x="638" y="160"/>
      <point x="861" y="335"/>
      <point x="879" y="345" type="curve" smooth="yes"/>
      <point x="902" y="360"/>
      <point x="932" y="376"/>
      <point x="974" y="378" type="curve"/>
      <point x="989" y="379"/>
      <point x="1010" y="390"/>
      <point x="1010" y="399" type="curve" smooth="yes"/>
      <point x="1010" y="405"/>
      <point x="998" y="411"/>
      <point x="993" y="411" type="curve" smooth="yes"/>
      <point x="959" y="411"/>
      <point x="909" y="398"/>
      <point x="868" y="398" type="curve" smooth="yes"/>
      <point x="847" y="398"/>
      <point x="781" y="403"/>
      <point x="772" y="403" type="curve" smooth="yes"/>
      <point x="766" y="403"/>
      <point x="742" y="401"/>
      <point x="742" y="390" type="curve" smooth="yes"/>
      <point x="742" y="385"/>
      <point x="754" y="378"/>
      <point x="759" y="377" type="curve"/>
      <point x="780" y="374"/>
      <point x="791" y="358"/>
      <point x="791" y="351" type="curve" smooth="yes"/>
      <point x="791" y="336"/>
      <point x="710" y="256"/>
      <point x="646" y="204" type="curve" smooth="yes"/>
      <point x="616" y="181" type="line"/>
      <point x="599" y="198" type="line" smooth="yes"/>
      <point x="544" y="255"/>
      <point x="501" y="289"/>
      <point x="431" y="344" type="curve" smooth="yes"/>
      <point x="413" y="358" type="line"/>
      <point x="432" y="363" type="line" smooth="yes"/>
      <point x="522" y="388"/>
      <point x="579" y="426"/>
      <point x="577" y="477" type="curve" smooth="yes"/>
      <point x="577" y="529"/>
      <point x="520" y="599"/>
      <point x="399" y="599" type="curve" smooth="yes"/>
      <point x="302" y="599"/>
      <point x="204" y="554"/>
      <point x="204" y="484" type="curve" smooth="yes"/>
      <point x="204" y="426"/>
      <point x="273" y="392"/>
      <point x="300" y="371" type="curve"/>
      <point x="323" y="355" type="line"/>
      <point x="295" y="346" type="line" smooth="yes"/>
      <point x="144" y="299"/>
      <point x="52" y="234"/>
      <point x="52" y="127" type="curve" smooth="yes"/>
      <point x="52" y="45"/>
      <point x="150" y="-15"/>
      <point x="293" y="-15" type="curve" smooth="yes"/>
      <point x="422" y="-15"/>
      <point x="487" y="44"/>
    </contour>
    <contour>
      <point x="135" y="160" type="curve" smooth="yes"/>
      <point x="135" y="219"/>
      <point x="166" y="285"/>
      <point x="313" y="325" type="curve" smooth="yes"/>
      <point x="346" y="333" type="line"/>
      <point x="364" y="319" type="line" smooth="yes"/>
      <point x="442" y="257"/>
      <point x="499" y="209"/>
      <point x="546" y="161" type="curve" smooth="yes"/>
      <point x="564" y="143" type="line"/>
      <point x="548" y="132" type="line" smooth="yes"/>
      <point x="476" y="81"/>
      <point x="413" y="50"/>
      <point x="316" y="50" type="curve" smooth="yes"/>
      <point x="209" y="50"/>
      <point x="135" y="99"/>
    </contour>
    <contour>
      <point x="367" y="395" type="line" smooth="yes"/>
      <point x="281" y="448"/>
      <point x="269" y="468"/>
      <point x="269" y="504" type="curve" smooth="yes"/>
      <point x="269" y="540"/>
      <point x="329" y="568"/>
      <point x="396" y="568" type="curve" smooth="yes"/>
      <point x="472" y="568"/>
      <point x="509" y="524"/>
      <point x="509" y="480" type="curve" smooth="yes"/>
      <point x="509" y="442"/>
      <point x="478" y="403"/>
      <point x="417" y="386" type="curve" smooth="yes"/>
      <point x="394" y="379" type="line"/>
    </contour>
  </outline>
</glyph>
<glyph name="asterisk" format="1">
  <advance width="467"/>
  <unicode hex="002A"/>
  <outline>
    <contour>
      <point x="264" y="395" type="curve"/>
      <point x="263" y="429"/>
      <point x="260" y="461"/>
      <point x="257" y="488" type="curve"/>
      <point x="303" y="476"/>
      <point x="342" y="466"/>
      <point x="386" y="452" type="curve" smooth="yes"/>
      <point x="397" y="449"/>
      <point x="421" y="452"/>
      <point x="421" y="466" type="curve" smooth="yes"/>
      <point x="421" y="473"/>
      <point x="415" y="480"/>
      <point x="405" y="484" type="curve"/>
      <point x="363" y="501"/>
      <point x="317" y="515"/>
      <point x="281" y="526" type="curve"/>
      <point x="392" y="582" type="line"/>
      <point x="400" y="586"/>
      <point x="405" y="594"/>
      <point x="405" y="600" type="curve" smooth="yes"/>
      <point x="405" y="610"/>
      <point x="393" y="614"/>
      <point x="382" y="614" type="curve" smooth="yes"/>
      <point x="377" y="614"/>
      <point x="367" y="612"/>
      <point x="358" y="608" type="curve"/>
      <point x="322" y="591"/>
      <point x="288" y="576"/>
      <point x="250" y="560" type="curve"/>
      <point x="236" y="651" type="line" smooth="yes"/>
      <point x="235" y="660"/>
      <point x="227" y="670"/>
      <point x="218" y="670" type="curve" smooth="yes"/>
      <point x="206" y="670"/>
      <point x="199" y="659"/>
      <point x="200" y="646" type="curve" smooth="yes"/>
      <point x="201" y="612"/>
      <point x="204" y="583"/>
      <point x="207" y="554" type="curve"/>
      <point x="164" y="566"/>
      <point x="121" y="577"/>
      <point x="79" y="591" type="curve"/>
      <point x="67" y="594"/>
      <point x="47" y="591"/>
      <point x="47" y="577" type="curve" smooth="yes"/>
      <point x="47" y="570"/>
      <point x="53" y="562"/>
      <point x="65" y="558" type="curve"/>
      <point x="109" y="542"/>
      <point x="147" y="529"/>
      <point x="184" y="516" type="curve"/>
      <point x="78" y="460" type="line"/>
      <point x="69" y="455"/>
      <point x="66" y="448"/>
      <point x="66" y="442" type="curve" smooth="yes"/>
      <point x="66" y="432"/>
      <point x="75" y="429"/>
      <point x="86" y="429" type="curve" smooth="yes"/>
      <point x="92" y="429"/>
      <point x="101" y="431"/>
      <point x="110" y="435" type="curve"/>
      <point x="146" y="451"/>
      <point x="180" y="466"/>
      <point x="215" y="481" type="curve"/>
      <point x="225" y="390" type="line" smooth="yes"/>
      <point x="227" y="381"/>
      <point x="235" y="372"/>
      <point x="245" y="372" type="curve" smooth="yes"/>
      <point x="258" y="372"/>
      <point x="265" y="383"/>
    </contour>
  </outline>
</glyph>
<glyph name="hyphen" format="1">
  <advance width="375"/>
  <unicode hex="002D"/>
  <outline>
    <contour>
      <point x="307" y="194" type="curve" smooth="yes"/>
      <point x="328" y="196"/>
      <point x="335" y="225"/>
      <point x="335" y="250" type="curve" smooth="yes"/>
      <point x="335" y="254"/>
      <point x="330" y="256"/>
      <point x="324" y="256" type="curve"/>
      <point x="237" y="249"/>
      <point x="149" y="240"/>
      <point x="62" y="231" type="curve"/>
      <point x="48" y="230"/>
      <point x="40" y="197"/>
      <point x="40" y="175" type="curve" smooth="yes"/>
      <point x="40" y="171"/>
      <point x="41" y="169"/>
      <point x="48" y="169" type="curve"/>
      <point x="141" y="175"/>
      <point x="224" y="185"/>
    </contour>
  </outline>
</glyph>
<glyph name="four" format="1">
  <advance width="677"/>
  <unicode hex="0034"/>
  <outline>
    <contour>
      <point x="477" y="3" type="curve" smooth="yes"/>
      <point x="533" y="3"/>
      <point x="546" y="-3"/>
      <point x="607" y="-3" type="curve" smooth="yes"/>
      <point x="617" y="-3"/>
      <point x="626" y="3"/>
      <point x="626" y="10" type="curve" smooth="yes"/>
      <point x="626" y="19"/>
      <point x="614" y="25"/>
      <point x="601" y="28" type="curve" smooth="yes"/>
      <point x="537" y="40"/>
      <point x="517" y="53"/>
      <point x="517" y="91" type="curve" smooth="yes"/>
      <point x="517" y="175" type="line" smooth="yes"/>
      <point x="517" y="176"/>
      <point x="528" y="180"/>
      <point x="535" y="181" type="curve"/>
      <point x="546" y="182"/>
      <point x="561" y="183"/>
      <point x="577" y="183" type="curve" smooth="yes"/>
      <point x="599" y="183"/>
      <point x="624" y="182"/>
      <point x="644" y="182" type="curve" smooth="yes"/>
      <point x="650" y="182"/>
      <point x="673" y="211"/>
      <point x="673" y="227" type="curve" smooth="yes"/>
      <point x="673" y="231"/>
      <point x="666" y="235"/>
      <point x="658" y="235" type="curve"/>
      <point x="628" y="234"/>
      <point x="603" y="233"/>
      <point x="577" y="233" type="curve" smooth="yes"/>
      <point x="561" y="233"/>
      <point x="544" y="233"/>
      <point x="523" y="234" type="curve"/>
      <point x="519" y="234"/>
      <point x="516" y="237"/>
      <point x="516" y="240" type="curve" smooth="yes"/>
      <point x="516" y="361" type="line" smooth="yes"/>
      <point x="516" y="403"/>
      <point x="516" y="425"/>
      <point x="501" y="425" type="curve" smooth="yes"/>
      <point x="491" y="425"/>
      <point x="460" y="423"/>
      <point x="437" y="412" type="curve"/>
      <point x="427" y="408"/>
      <point x="426" y="404"/>
      <point x="426" y="390" type="curve" smooth="yes"/>
      <point x="426" y="242" type="line" smooth="yes"/>
      <point x="426" y="238"/>
      <point x="419" y="234"/>
      <point x="414" y="234" type="curve" smooth="yes"/>
      <point x="146" y="234" type="line" smooth="yes"/>
      <point x="140" y="234"/>
      <point x="143" y="240"/>
      <point x="146" y="243" type="curve" smooth="yes"/>
      <point x="508" y="628" type="line"/>
      <point x="508" y="628"/>
      <point x="519" y="642"/>
      <point x="511" y="642" type="curve" smooth="yes"/>
      <point x="483" y="642" type="line" smooth="yes"/>
      <point x="469" y="642"/>
      <point x="452" y="626"/>
      <point x="442" y="614" type="curve" smooth="yes"/>
      <point x="84" y="235" type="line" smooth="yes"/>
      <point x="66" y="217"/>
      <point x="64" y="216"/>
      <point x="30" y="185" type="curve"/>
      <point x="29" y="184"/>
      <point x="29" y="183"/>
      <point x="29" y="182" type="curve" smooth="yes"/>
      <point x="29" y="178"/>
      <point x="36" y="172"/>
      <point x="43" y="172" type="curve" smooth="yes"/>
      <point x="187" y="173"/>
      <point x="263" y="179"/>
      <point x="409" y="179" type="curve" smooth="yes"/>
      <point x="414" y="179"/>
      <point x="426" y="175"/>
      <point x="426" y="166" type="curve" smooth="yes"/>
      <point x="426" y="85" type="line" smooth="yes"/>
      <point x="426" y="53"/>
      <point x="410" y="35"/>
      <point x="340" y="28" type="curve" smooth="yes"/>
      <point x="328" y="26"/>
      <point x="316" y="21"/>
      <point x="316" y="12" type="curve" smooth="yes"/>
      <point x="316" y="2"/>
      <point x="330" y="-3"/>
      <point x="340" y="-3" type="curve" smooth="yes"/>
      <point x="405" y="-3"/>
      <point x="418" y="3"/>
    </contour>
  </outline>
</glyph>
<glyph name="five" format="1">
  <advance width="677"/>
  <unicode hex="0035"/>
  <outline>
    <contour>
      <point x="411" y="10" type="curve" smooth="yes"/>
      <point x="514" y="52"/>
      <point x="582" y="120"/>
      <point x="582" y="193" type="curve" smooth="yes"/>
      <point x="582" y="275"/>
      <point x="530" y="324"/>
      <point x="423" y="363" type="curve" smooth="yes"/>
      <point x="359" y="386"/>
      <point x="267" y="408"/>
      <point x="171" y="427" type="curve" smooth="yes"/>
      <point x="156" y="430"/>
      <point x="152" y="436"/>
      <point x="154" y="445" type="curve"/>
      <point x="156" y="461"/>
      <point x="188" y="523"/>
      <point x="207" y="525" type="curve" smooth="yes"/>
      <point x="248" y="530"/>
      <point x="386" y="537"/>
      <point x="458" y="543" type="curve" smooth="yes"/>
      <point x="481" y="545"/>
      <point x="496" y="555"/>
      <point x="509" y="575" type="curve" smooth="yes"/>
      <point x="516" y="586"/>
      <point x="523" y="598"/>
      <point x="531" y="610" type="curve" smooth="yes"/>
      <point x="538" y="619"/>
      <point x="530" y="628"/>
      <point x="516" y="627" type="curve" smooth="yes"/>
      <point x="406" y="620"/>
      <point x="312" y="608"/>
      <point x="225" y="592" type="curve" smooth="yes"/>
      <point x="196" y="587"/>
      <point x="178" y="576"/>
      <point x="168" y="556" type="curve" smooth="yes"/>
      <point x="148" y="512"/>
      <point x="102" y="433"/>
      <point x="102" y="394" type="curve" smooth="yes"/>
      <point x="102" y="376"/>
      <point x="110" y="364"/>
      <point x="135" y="349" type="curve"/>
      <point x="398" y="304"/>
      <point x="493" y="256"/>
      <point x="493" y="182" type="curve" smooth="yes"/>
      <point x="493" y="98"/>
      <point x="381" y="1"/>
      <point x="145" y="1" type="curve" smooth="yes"/>
      <point x="126" y="1"/>
      <point x="95" y="-11"/>
      <point x="95" y="-22" type="curve" smooth="yes"/>
      <point x="95" y="-33"/>
      <point x="124" y="-38"/>
      <point x="146" y="-38" type="curve" smooth="yes"/>
      <point x="245" y="-38"/>
      <point x="336" y="-20"/>
    </contour>
  </outline>
</glyph>
<glyph name="six" format="1">
  <advance width="677"/>
  <unicode hex="0036"/>
  <outline>
    <contour>
      <point x="645" y="190" type="curve" smooth="yes"/>
      <point x="645" y="263"/>
      <point x="558" y="315"/>
      <point x="461" y="315" type="curve" smooth="yes"/>
      <point x="411" y="315"/>
      <point x="348" y="293"/>
      <point x="324" y="279" type="curve" smooth="yes"/>
      <point x="308" y="271"/>
      <point x="298" y="265"/>
      <point x="285" y="253" type="curve" smooth="yes"/>
      <point x="272" y="242"/>
      <point x="276" y="229"/>
      <point x="294" y="237" type="curve" smooth="yes"/>
      <point x="330" y="251"/>
      <point x="364" y="254"/>
      <point x="419" y="254" type="curve" smooth="yes"/>
      <point x="501" y="254"/>
      <point x="560" y="200"/>
      <point x="560" y="143" type="curve" smooth="yes"/>
      <point x="560" y="65"/>
      <point x="480" y="30"/>
      <point x="393" y="31" type="curve" smooth="yes"/>
      <point x="285" y="32"/>
      <point x="163" y="91"/>
      <point x="160" y="200" type="curve" smooth="yes"/>
      <point x="158" y="301"/>
      <point x="243" y="406"/>
      <point x="298" y="457" type="curve" smooth="yes"/>
      <point x="372" y="527"/>
      <point x="463" y="572"/>
      <point x="591" y="608" type="curve" smooth="yes"/>
      <point x="602" y="611"/>
      <point x="622" y="616"/>
      <point x="630" y="630" type="curve" smooth="yes"/>
      <point x="632" y="635"/>
      <point x="622" y="644"/>
      <point x="600" y="640" type="curve" smooth="yes"/>
      <point x="439" y="610"/>
      <point x="313" y="536"/>
      <point x="241" y="484" type="curve" smooth="yes"/>
      <point x="175" y="436"/>
      <point x="64" y="335"/>
      <point x="64" y="193" type="curve" smooth="yes"/>
      <point x="64" y="53"/>
      <point x="209" y="-16"/>
      <point x="355" y="-16" type="curve" smooth="yes"/>
      <point x="492" y="-16"/>
      <point x="645" y="65"/>
    </contour>
  </outline>
</glyph>
<glyph name="eight" format="1">
  <advance width="677"/>
  <unicode hex="0038"/>
  <outline>
    <contour>
      <point x="602" y="164" type="curve" smooth="yes"/>
      <point x="602" y="241"/>
      <point x="535" y="290"/>
      <point x="434" y="336" type="curve" smooth="yes"/>
      <point x="419" y="343"/>
      <point x="418" y="345"/>
      <point x="441" y="357" type="curve" smooth="yes"/>
      <point x="472" y="373"/>
      <point x="485" y="383"/>
      <point x="508" y="396" type="curve" smooth="yes"/>
      <point x="540" y="416"/>
      <point x="576" y="445"/>
      <point x="576" y="496" type="curve" smooth="yes"/>
      <point x="576" y="577"/>
      <point x="465" y="630"/>
      <point x="353" y="630" type="curve" smooth="yes"/>
      <point x="227" y="630"/>
      <point x="97" y="567"/>
      <point x="97" y="489" type="curve" smooth="yes"/>
      <point x="97" y="404"/>
      <point x="173" y="369"/>
      <point x="254" y="320" type="curve" smooth="yes"/>
      <point x="265" y="313"/>
      <point x="271" y="312"/>
      <point x="258" y="307" type="curve" smooth="yes"/>
      <point x="190" y="278"/>
      <point x="76" y="231"/>
      <point x="76" y="141" type="curve" smooth="yes"/>
      <point x="76" y="49"/>
      <point x="195" y="-14"/>
      <point x="324" y="-14" type="curve" smooth="yes"/>
      <point x="462" y="-14"/>
      <point x="602" y="60"/>
    </contour>
    <contour>
      <point x="162" y="157" type="curve" smooth="yes"/>
      <point x="162" y="216"/>
      <point x="209" y="246"/>
      <point x="282" y="279" type="curve" smooth="yes"/>
      <point x="290" y="283"/>
      <point x="297" y="285"/>
      <point x="301" y="285" type="curve" smooth="yes"/>
      <point x="311" y="285"/>
      <point x="321" y="281"/>
      <point x="335" y="276" type="curve"/>
      <point x="425" y="240"/>
      <point x="514" y="186"/>
      <point x="514" y="128" type="curve" smooth="yes"/>
      <point x="514" y="72"/>
      <point x="442" y="24"/>
      <point x="345" y="24" type="curve" smooth="yes"/>
      <point x="230" y="24"/>
      <point x="162" y="92"/>
    </contour>
    <contour>
      <point x="364" y="370" type="curve"/>
      <point x="251" y="422"/>
      <point x="181" y="438"/>
      <point x="181" y="506" type="curve" smooth="yes"/>
      <point x="181" y="556"/>
      <point x="266" y="595"/>
      <point x="346" y="595" type="curve" smooth="yes"/>
      <point x="442" y="595"/>
      <point x="490" y="552"/>
      <point x="490" y="501" type="curve" smooth="yes"/>
      <point x="490" y="445"/>
      <point x="465" y="402"/>
      <point x="387" y="367" type="curve"/>
      <point x="380" y="364"/>
      <point x="371" y="367"/>
    </contour>
  </outline>
</glyph>
<glyph name="question" format="1">
  <advance width="518"/>
  <unicode hex="003F"/>
  <outline>
    <contour>
      <point x="194" y="203" type="curve" smooth="yes"/>
      <point x="194" y="234"/>
      <point x="202" y="260"/>
      <point x="255" y="283" type="curve" smooth="yes"/>
      <point x="298" y="304"/>
      <point x="312" y="308"/>
      <point x="371" y="332" type="curve" smooth="yes"/>
      <point x="399" y="343"/>
      <point x="429" y="367"/>
      <point x="429" y="416" type="curve" smooth="yes"/>
      <point x="429" y="468"/>
      <point x="378" y="554"/>
      <point x="301" y="611" type="curve" smooth="yes"/>
      <point x="255" y="644"/>
      <point x="197" y="661"/>
      <point x="152" y="661" type="curve" smooth="yes"/>
      <point x="123" y="661"/>
      <point x="97" y="644"/>
      <point x="97" y="624" type="curve" smooth="yes"/>
      <point x="97" y="597"/>
      <point x="116" y="567"/>
      <point x="147" y="567" type="curve" smooth="yes"/>
      <point x="158" y="567"/>
      <point x="168" y="570"/>
      <point x="178" y="573" type="curve" smooth="yes"/>
      <point x="188" y="576"/>
      <point x="198" y="579"/>
      <point x="210" y="579" type="curve" smooth="yes"/>
      <point x="308" y="578"/>
      <point x="370" y="523"/>
      <point x="370" y="458" type="curve" smooth="yes"/>
      <point x="370" y="429"/>
      <point x="322" y="402"/>
      <point x="281" y="388" type="curve" smooth="yes"/>
      <point x="190" y="356"/>
      <point x="134" y="331"/>
      <point x="134" y="292" type="curve" smooth="yes"/>
      <point x="134" y="251"/>
      <point x="142" y="231"/>
      <point x="149" y="209" type="curve" smooth="yes"/>
      <point x="155" y="193"/>
      <point x="165" y="180"/>
      <point x="176" y="180" type="curve" smooth="yes"/>
      <point x="188" y="180"/>
      <point x="194" y="193"/>
    </contour>
    <contour>
      <point x="248" y="41" type="curve" smooth="yes"/>
      <point x="251" y="74"/>
      <point x="226" y="103"/>
      <point x="191" y="106" type="curve" smooth="yes"/>
      <point x="158" y="109"/>
      <point x="128" y="84"/>
      <point x="125" y="51" type="curve" smooth="yes"/>
      <point x="123" y="18"/>
      <point x="148" y="-10"/>
      <point x="182" y="-13" type="curve" smooth="yes"/>
      <point x="216" y="-16"/>
      <point x="246" y="9"/>
    </contour>
  </outline>
</glyph>
<glyph name="at" format="1">
  <advance width="1039"/>
  <unicode hex="0040"/>
  <outline>
    <contour>
      <point x="879" y="-19" type="curve" smooth="yes"/>
      <point x="879" y="-9"/>
      <point x="874" y="-3"/>
      <point x="864" y="-3" type="curve" smooth="yes"/>
      <point x="856" y="-3"/>
      <point x="847" y="-9"/>
      <point x="838" y="-15" type="curve" smooth="yes"/>
      <point x="764" y="-55"/>
      <point x="637" y="-88"/>
      <point x="545" y="-88" type="curve" smooth="yes"/>
      <point x="316" y="-88"/>
      <point x="119" y="33"/>
      <point x="119" y="191" type="curve" smooth="yes"/>
      <point x="119" y="357"/>
      <point x="320" y="464"/>
      <point x="547" y="464" type="curve" smooth="yes"/>
      <point x="749" y="464"/>
      <point x="920" y="358"/>
      <point x="920" y="219" type="curve" smooth="yes"/>
      <point x="920" y="137"/>
      <point x="833" y="88"/>
      <point x="734" y="88" type="curve" smooth="yes"/>
      <point x="710" y="88"/>
      <point x="704" y="102"/>
      <point x="704" y="117" type="curve" smooth="yes"/>
      <point x="704" y="126"/>
      <point x="706" y="137"/>
      <point x="707" y="146" type="curve"/>
      <point x="727" y="272" type="line" smooth="yes"/>
      <point x="730" y="288"/>
      <point x="742" y="326"/>
      <point x="750" y="352" type="curve"/>
      <point x="754" y="356"/>
      <point x="732" y="360"/>
      <point x="727" y="360" type="curve" smooth="yes"/>
      <point x="714" y="360"/>
      <point x="707" y="341"/>
      <point x="694" y="341" type="curve" smooth="yes"/>
      <point x="690" y="341"/>
      <point x="684" y="342"/>
      <point x="663" y="347" type="curve" smooth="yes"/>
      <point x="647" y="351"/>
      <point x="601" y="355"/>
      <point x="573" y="355" type="curve" smooth="yes"/>
      <point x="420" y="355"/>
      <point x="280" y="277"/>
      <point x="280" y="156" type="curve" smooth="yes"/>
      <point x="280" y="86"/>
      <point x="358" y="47"/>
      <point x="458" y="47" type="curve" smooth="yes"/>
      <point x="553" y="47"/>
      <point x="618" y="84"/>
      <point x="633" y="84" type="curve" smooth="yes"/>
      <point x="649" y="84"/>
      <point x="646" y="47"/>
      <point x="707" y="46" type="curve" smooth="yes"/>
      <point x="837" y="46"/>
      <point x="973" y="117"/>
      <point x="973" y="235" type="curve" smooth="yes"/>
      <point x="973" y="385"/>
      <point x="783" y="509"/>
      <point x="575" y="509" type="curve" smooth="yes"/>
      <point x="308" y="509"/>
      <point x="66" y="397"/>
      <point x="66" y="181" type="curve" smooth="yes"/>
      <point x="66" y="-4"/>
      <point x="281" y="-133"/>
      <point x="530" y="-133" type="curve" smooth="yes"/>
      <point x="686" y="-133"/>
      <point x="879" y="-47"/>
    </contour>
    <contour>
      <point x="358" y="175" type="curve" smooth="yes"/>
      <point x="358" y="269"/>
      <point x="455" y="319"/>
      <point x="546" y="319" type="curve" smooth="yes"/>
      <point x="622" y="319"/>
      <point x="659" y="307"/>
      <point x="659" y="264" type="curve" smooth="yes"/>
      <point x="659" y="259"/>
      <point x="659" y="254"/>
      <point x="658" y="248" type="curve"/>
      <point x="642" y="157" type="line" smooth="yes"/>
      <point x="636" y="122"/>
      <point x="617" y="114"/>
      <point x="597" y="106" type="curve" smooth="yes"/>
      <point x="563" y="93"/>
      <point x="536" y="85"/>
      <point x="497" y="85" type="curve" smooth="yes"/>
      <point x="433" y="85"/>
      <point x="358" y="106"/>
    </contour>
  </outline>
</glyph>
<glyph name="J" format="1">
  <advance width="350"/>
  <unicode hex="004A"/>
  <outline>
    <contour>
      <point x="139" y="-147" type="curve" smooth="yes"/>
      <point x="186" y="-106"/>
      <point x="242" y="-36"/>
      <point x="242" y="69" type="curve" smooth="yes"/>
      <point x="242" y="540" type="line" smooth="yes"/>
      <point x="242" y="590"/>
      <point x="261" y="607"/>
      <point x="321" y="616" type="curve" smooth="yes"/>
      <point x="349" y="621"/>
      <point x="360" y="629"/>
      <point x="360" y="640" type="curve" smooth="yes"/>
      <point x="360" y="649"/>
      <point x="347" y="653"/>
      <point x="327" y="653" type="curve" smooth="yes"/>
      <point x="264" y="653"/>
      <point x="253" y="649"/>
      <point x="205" y="649" type="curve" smooth="yes"/>
      <point x="151" y="649"/>
      <point x="130" y="653"/>
      <point x="66" y="653" type="curve" smooth="yes"/>
      <point x="47" y="653"/>
      <point x="33" y="649"/>
      <point x="33" y="640" type="curve" smooth="yes"/>
      <point x="33" y="629"/>
      <point x="46" y="621"/>
      <point x="73" y="616" type="curve" smooth="yes"/>
      <point x="131" y="607"/>
      <point x="152" y="590"/>
      <point x="152" y="540" type="curve" smooth="yes"/>
      <point x="152" y="21" type="line" smooth="yes"/>
      <point x="152" y="-85"/>
      <point x="103" y="-153"/>
      <point x="32" y="-153" type="curve" smooth="yes"/>
      <point x="-3" y="-153"/>
      <point x="-26" y="-142"/>
      <point x="-46" y="-126" type="curve" smooth="yes"/>
      <point x="-63" y="-112"/>
      <point x="-78" y="-104"/>
      <point x="-96" y="-104" type="curve" smooth="yes"/>
      <point x="-114" y="-104"/>
      <point x="-135" y="-126"/>
      <point x="-135" y="-149" type="curve" smooth="yes"/>
      <point x="-135" y="-183"/>
      <point x="-99" y="-200"/>
      <point x="3" y="-200" type="curve" smooth="yes"/>
      <point x="59" y="-200"/>
      <point x="96" y="-179"/>
    </contour>
  </outline>
</glyph>
<glyph name="O" format="1">
  <advance width="1064"/>
  <unicode hex="004F"/>
  <outline>
    <contour>
      <point x="1002" y="335" type="curve" smooth="yes"/>
      <point x="1002" y="532"/>
      <point x="784" y="664"/>
      <point x="538" y="664" type="curve" smooth="yes"/>
      <point x="227" y="664"/>
      <point x="62" y="495"/>
      <point x="62" y="315" type="curve" smooth="yes"/>
      <point x="62" y="118"/>
      <point x="279" y="-14"/>
      <point x="526" y="-14" type="curve" smooth="yes"/>
      <point x="836" y="-14"/>
      <point x="1002" y="155"/>
    </contour>
    <contour>
      <point x="167" y="364" type="curve" smooth="yes"/>
      <point x="167" y="511"/>
      <point x="294" y="614"/>
      <point x="514" y="614" type="curve" smooth="yes"/>
      <point x="757" y="614"/>
      <point x="897" y="467"/>
      <point x="897" y="287" type="curve" smooth="yes"/>
      <point x="897" y="142"/>
      <point x="768" y="34"/>
      <point x="548" y="34" type="curve" smooth="yes"/>
      <point x="316" y="34"/>
      <point x="167" y="174"/>
    </contour>
  </outline>
</glyph>
<glyph name="S" format="1">
  <advance width="624"/>
  <unicode hex="0053"/>
  <outline>
    <contour>
      <point x="580" y="182" type="curve" smooth="yes"/>
      <point x="580" y="271"/>
      <point x="511" y="319"/>
      <point x="366" y="373" type="curve" smooth="yes"/>
      <point x="235" y="423"/>
      <point x="166" y="462"/>
      <point x="166" y="513" type="curve" smooth="yes"/>
      <point x="166" y="592"/>
      <point x="244" y="621"/>
      <point x="332" y="621" type="curve" smooth="yes"/>
      <point x="415" y="621"/>
      <point x="492" y="590"/>
      <point x="525" y="517" type="curve" smooth="yes"/>
      <point x="528" y="508"/>
      <point x="541" y="502"/>
      <point x="553" y="502" type="curve" smooth="yes"/>
      <point x="561" y="502"/>
      <point x="570" y="505"/>
      <point x="570" y="515" type="curve" smooth="yes"/>
      <point x="570" y="547"/>
      <point x="554" y="587"/>
      <point x="543" y="617" type="curve" smooth="yes"/>
      <point x="539" y="627"/>
      <point x="528" y="638"/>
      <point x="514" y="642" type="curve" smooth="yes"/>
      <point x="484" y="651"/>
      <point x="436" y="664"/>
      <point x="370" y="664" type="curve" smooth="yes"/>
      <point x="175" y="664"/>
      <point x="82" y="582"/>
      <point x="82" y="480" type="curve" smooth="yes"/>
      <point x="82" y="393"/>
      <point x="166" y="349"/>
      <point x="312" y="292" type="curve" smooth="yes"/>
      <point x="432" y="246"/>
      <point x="492" y="221"/>
      <point x="492" y="143" type="curve" smooth="yes"/>
      <point x="492" y="72"/>
      <point x="418" y="26"/>
      <point x="317" y="26" type="curve" smooth="yes"/>
      <point x="195" y="26"/>
      <point x="127" y="57"/>
      <point x="95" y="160" type="curve" smooth="yes"/>
      <point x="92" y="168"/>
      <point x="85" y="172"/>
      <point x="77" y="172" type="curve" smooth="yes"/>
      <point x="64" y="172"/>
      <point x="54" y="166"/>
      <point x="55" y="157" type="curve"/>
      <point x="57" y="129"/>
      <point x="59" y="79"/>
      <point x="68" y="52" type="curve" smooth="yes"/>
      <point x="71" y="44"/>
      <point x="79" y="37"/>
      <point x="86" y="32" type="curve"/>
      <point x="137" y="1"/>
      <point x="204" y="-16"/>
      <point x="281" y="-16" type="curve" smooth="yes"/>
      <point x="461" y="-16"/>
      <point x="580" y="62"/>
    </contour>
  </outline>
</glyph>
<glyph name="V" format="1">
  <advance width="876"/>
  <unicode hex="0056"/>
  <outline>
    <contour>
      <point x="442" y="-4" type="curve" smooth="yes"/>
      <point x="458" y="19"/>
      <point x="479" y="66"/>
      <point x="486" y="79" type="curve" smooth="yes"/>
      <point x="729" y="530" type="line" smooth="yes"/>
      <point x="749" y="570"/>
      <point x="790" y="607"/>
      <point x="850" y="618" type="curve" smooth="yes"/>
      <point x="878" y="623"/>
      <point x="890" y="630"/>
      <point x="890" y="640" type="curve" smooth="yes"/>
      <point x="890" y="649"/>
      <point x="876" y="653"/>
      <point x="857" y="653" type="curve" smooth="yes"/>
      <point x="827" y="653"/>
      <point x="772" y="650"/>
      <point x="727" y="650" type="curve" smooth="yes"/>
      <point x="684" y="650"/>
      <point x="644" y="651"/>
      <point x="614" y="651" type="curve" smooth="yes"/>
      <point x="595" y="651"/>
      <point x="581" y="648"/>
      <point x="581" y="639" type="curve" smooth="yes"/>
      <point x="581" y="628"/>
      <point x="597" y="620"/>
      <point x="625" y="617" type="curve" smooth="yes"/>
      <point x="665" y="611"/>
      <point x="702" y="582"/>
      <point x="666" y="514" type="curve" smooth="yes"/>
      <point x="458" y="129" type="line" smooth="yes"/>
      <point x="453" y="119"/>
      <point x="446" y="123"/>
      <point x="443" y="128" type="curve" smooth="yes"/>
      <point x="237" y="530" type="line"/>
      <point x="232" y="539"/>
      <point x="222" y="556"/>
      <point x="222" y="579" type="curve" smooth="yes"/>
      <point x="222" y="601"/>
      <point x="252" y="613"/>
      <point x="294" y="617" type="curve" smooth="yes"/>
      <point x="322" y="619"/>
      <point x="333" y="629"/>
      <point x="333" y="639" type="curve" smooth="yes"/>
      <point x="333" y="648"/>
      <point x="319" y="652"/>
      <point x="298" y="652" type="curve" smooth="yes"/>
      <point x="274" y="652"/>
      <point x="225" y="650"/>
      <point x="177" y="650" type="curve" smooth="yes"/>
      <point x="121" y="650"/>
      <point x="72" y="653"/>
      <point x="35" y="653" type="curve" smooth="yes"/>
      <point x="14" y="653"/>
      <point x="0" y="650"/>
      <point x="0" y="641" type="curve" smooth="yes"/>
      <point x="0" y="631"/>
      <point x="15" y="624"/>
      <point x="45" y="616" type="curve" smooth="yes"/>
      <point x="92" y="605"/>
      <point x="114" y="578"/>
      <point x="132" y="542" type="curve" smooth="yes"/>
      <point x="370" y="56" type="line" smooth="yes"/>
      <point x="378" y="38"/>
      <point x="391" y="10"/>
      <point x="400" y="-5" type="curve" smooth="yes"/>
      <point x="403" y="-10"/>
      <point x="414" y="-12"/>
      <point x="422" y="-12" type="curve" smooth="yes"/>
      <point x="429" y="-12"/>
      <point x="439" y="-9"/>
    </contour>
  </outline>
</glyph>
<glyph name="Y" format="1">
  <advance width="761"/>
  <unicode hex="0059"/>
  <outline>
    <contour>
      <point x="411" y="0" type="curve" smooth="yes"/>
      <point x="464" y="0"/>
      <point x="483" y="-5"/>
      <point x="545" y="-5" type="curve" smooth="yes"/>
      <point x="564" y="-5"/>
      <point x="578" y="-1"/>
      <point x="578" y="8" type="curve" smooth="yes"/>
      <point x="578" y="19"/>
      <point x="567" y="25"/>
      <point x="540" y="29" type="curve" smooth="yes"/>
      <point x="482" y="38"/>
      <point x="449" y="69"/>
      <point x="449" y="116" type="curve" smooth="yes"/>
      <point x="449" y="255" type="line" smooth="yes"/>
      <point x="449" y="294"/>
      <point x="447" y="302"/>
      <point x="483" y="345" type="curve" smooth="yes"/>
      <point x="545" y="420"/>
      <point x="568" y="446"/>
      <point x="641" y="530" type="curve" smooth="yes"/>
      <point x="686" y="580"/>
      <point x="711" y="603"/>
      <point x="745" y="612" type="curve" smooth="yes"/>
      <point x="773" y="621"/>
      <point x="803" y="629"/>
      <point x="803" y="639" type="curve" smooth="yes"/>
      <point x="803" y="649"/>
      <point x="790" y="653"/>
      <point x="768" y="653" type="curve" smooth="yes"/>
      <point x="739" y="653"/>
      <point x="698" y="650"/>
      <point x="647" y="650" type="curve" smooth="yes"/>
      <point x="612" y="650"/>
      <point x="588" y="651"/>
      <point x="551" y="651" type="curve" smooth="yes"/>
      <point x="530" y="651"/>
      <point x="515" y="647"/>
      <point x="515" y="638" type="curve" smooth="yes"/>
      <point x="515" y="628"/>
      <point x="538" y="617"/>
      <point x="556" y="615" type="curve" smooth="yes"/>
      <point x="578" y="612"/>
      <point x="603" y="606"/>
      <point x="603" y="581" type="curve" smooth="yes"/>
      <point x="603" y="570"/>
      <point x="598" y="553"/>
      <point x="582" y="532" type="curve" smooth="yes"/>
      <point x="535" y="472"/>
      <point x="509" y="438"/>
      <point x="469" y="392" type="curve" smooth="yes"/>
      <point x="445" y="365"/>
      <point x="436" y="355"/>
      <point x="425" y="355" type="curve" smooth="yes"/>
      <point x="417" y="355"/>
      <point x="406" y="367"/>
      <point x="387" y="393" type="curve" smooth="yes"/>
      <point x="263" y="555" type="line" smooth="yes"/>
      <point x="251" y="572"/>
      <point x="246" y="583"/>
      <point x="246" y="591" type="curve" smooth="yes"/>
      <point x="246" y="606"/>
      <point x="263" y="611"/>
      <point x="287" y="616" type="curve" smooth="yes"/>
      <point x="317" y="622"/>
      <point x="332" y="629"/>
      <point x="332" y="639" type="curve" smooth="yes"/>
      <point x="332" y="648"/>
      <point x="315" y="652"/>
      <point x="291" y="652" type="curve" smooth="yes"/>
      <point x="262" y="652"/>
      <point x="229" y="650"/>
      <point x="186" y="650" type="curve" smooth="yes"/>
      <point x="122" y="650"/>
      <point x="82" y="653"/>
      <point x="41" y="653" type="curve" smooth="yes"/>
      <point x="17" y="653"/>
      <point x="0" y="649"/>
      <point x="0" y="640" type="curve" smooth="yes"/>
      <point x="0" y="630"/>
      <point x="15" y="623"/>
      <point x="46" y="615" type="curve" smooth="yes"/>
      <point x="91" y="604"/>
      <point x="147" y="545"/>
      <point x="167" y="522" type="curve" smooth="yes"/>
      <point x="327" y="330" type="line"/>
      <point x="335" y="319"/>
      <point x="359" y="283"/>
      <point x="359" y="256" type="curve" smooth="yes"/>
      <point x="359" y="116" type="line" smooth="yes"/>
      <point x="359" y="66"/>
      <point x="327" y="38"/>
      <point x="269" y="29" type="curve" smooth="yes"/>
      <point x="243" y="25"/>
      <point x="231" y="19"/>
      <point x="231" y="8" type="curve" smooth="yes"/>
      <point x="231" y="-1"/>
      <point x="245" y="-5"/>
      <point x="265" y="-5" type="curve" smooth="yes"/>
      <point x="326" y="-5"/>
      <point x="354" y="0"/>
    </contour>
  </outline>
</glyph>
<glyph name="bracketleft" format="1">
  <advance width="409"/>
  <unicode hex="005B"/>
  <outline>
    <contour>
      <point x="363" y="-200" type="line" smooth="yes"/>
      <point x="375" y="-200"/>
      <point x="389" y="-196"/>
      <point x="389" y="-182" type="curve" smooth="yes"/>
      <point x="389" y="-167"/>
      <point x="374" y="-162"/>
      <point x="360" y="-160" type="curve"/>
      <point x="212" y="-149" type="line" smooth="yes"/>
      <point x="197" y="-148"/>
      <point x="186" y="-133"/>
      <point x="186" y="-111" type="curve" smooth="yes"/>
      <point x="186" y="628" type="line" smooth="yes"/>
      <point x="186" y="645"/>
      <point x="200" y="660"/>
      <point x="212" y="660" type="curve" smooth="yes"/>
      <point x="360" y="665" type="line" smooth="yes"/>
      <point x="374" y="666"/>
      <point x="389" y="672"/>
      <point x="389" y="685" type="curve" smooth="yes"/>
      <point x="389" y="697"/>
      <point x="379" y="701"/>
      <point x="369" y="701" type="curve" smooth="yes"/>
      <point x="148" y="702" type="line" smooth="yes"/>
      <point x="116" y="702"/>
      <point x="110" y="702"/>
      <point x="110" y="668" type="curve" smooth="yes"/>
      <point x="110" y="-173" type="line" smooth="yes"/>
      <point x="110" y="-199"/>
      <point x="118" y="-200"/>
      <point x="142" y="-200" type="curve" smooth="yes"/>
    </contour>
  </outline>
</glyph>
<glyph name="backslash" format="1">
  <advance width="547"/>
  <unicode hex="005C"/>
  <outline>
    <contour>
      <point x="518" y="-46" type="curve" smooth="yes"/>
      <point x="97" y="647" type="line" smooth="yes"/>
      <point x="88" y="663"/>
      <point x="74" y="665"/>
      <point x="56" y="665" type="curve" smooth="yes"/>
      <point x="42" y="665"/>
      <point x="35" y="656"/>
      <point x="41" y="647" type="curve" smooth="yes"/>
      <point x="461" y="-46" type="line" smooth="yes"/>
      <point x="469" y="-60"/>
      <point x="484" y="-62"/>
      <point x="500" y="-62" type="curve" smooth="yes"/>
      <point x="514" y="-62"/>
      <point x="523" y="-54"/>
    </contour>
  </outline>
</glyph>
<glyph name="asciicircum" format="1">
  <advance width="685"/>
  <unicode hex="005E"/>
  <outline>
    <contour>
      <point x="128" y="305" type="curve" smooth="yes"/>
      <point x="333" y="511" type="line"/>
      <point x="339" y="517"/>
      <point x="341" y="517"/>
      <point x="348" y="511" type="curve"/>
      <point x="556" y="304" type="line" smooth="yes"/>
      <point x="565" y="295"/>
      <point x="589" y="284"/>
      <point x="607" y="284" type="curve" smooth="yes"/>
      <point x="618" y="284"/>
      <point x="621" y="298"/>
      <point x="614" y="307" type="curve"/>
      <point x="344" y="603" type="line"/>
      <point x="339" y="603" type="line"/>
      <point x="71" y="307" type="line"/>
      <point x="68" y="304"/>
      <point x="67" y="299"/>
      <point x="67" y="296" type="curve" smooth="yes"/>
      <point x="67" y="289"/>
      <point x="72" y="284"/>
      <point x="78" y="284" type="curve" smooth="yes"/>
      <point x="93" y="284"/>
      <point x="117" y="293"/>
    </contour>
  </outline>
</glyph>
<glyph name="underscore" format="1">
  <advance width="684"/>
  <unicode hex="005F"/>
  <outline>
    <contour>
      <point x="650" y="-184" type="line" smooth="yes"/>
      <point x="667" y="-184"/>
      <point x="685" y="-157"/>
      <point x="685" y="-142" type="curve" smooth="yes"/>
      <point x="685" y="-135"/>
      <point x="676" y="-130"/>
      <point x="670" y="-130" type="curve" smooth="yes"/>
      <point x="26" y="-130" type="line" smooth="yes"/>
      <point x="6" y="-130"/>
      <point x="0" y="-162"/>
      <point x="0" y="-171" type="curve" smooth="yes"/>
      <point x="0" y="-178"/>
      <point x="8" y="-184"/>
      <point x="15" y="-184" type="curve" smooth="yes"/>
    </contour>
  </outline>
</glyph>
<glyph name="o" format="1">
  <advance width="690"/>
  <unicode hex="006F"/>
  <outline>
    <contour>
      <point x="642" y="213" type="curve" smooth="yes"/>
      <point x="642" y="324"/>
      <point x="513" y="414"/>
      <point x="354" y="414" type="curve" smooth="yes"/>
      <point x="193" y="414"/>
      <point x="48" y="306"/>
      <point x="48" y="187" type="curve" smooth="yes"/>
      <point x="48" y="72"/>
      <point x="166" y="-14"/>
      <point x="326" y="-14" type="curve" smooth="yes"/>
      <point x="512" y="-14"/>
      <point x="642" y="79"/>
    </contour>
    <contour>
      <point x="136" y="210" type="curve" smooth="yes"/>
      <point x="136" y="322"/>
      <point x="199" y="377"/>
      <point x="328" y="377" type="curve" smooth="yes"/>
      <point x="458" y="377"/>
      <point x="554" y="296"/>
      <point x="554" y="189" type="curve" smooth="yes"/>
      <point x="554" y="72"/>
      <point x="494" y="22"/>
      <point x="357" y="22" type="curve" smooth="yes"/>
      <point x="227" y="22"/>
      <point x="136" y="102"/>
    </contour>
  </outline>
</glyph>
<glyph name="braceleft" format="1">
  <advance width="494"/>
  <unicode hex="007B"/>
  <outline>
    <contour>
      <point x="465" y="-133" type="curve" smooth="yes"/>
      <point x="465" y="-120"/>
      <point x="440" y="-118"/>
      <point x="420" y="-116" type="curve" smooth="yes"/>
      <point x="319" y="-110"/>
      <point x="260" y="-92"/>
      <point x="260" y="-21" type="curve" smooth="yes"/>
      <point x="260" y="46"/>
      <point x="278" y="93"/>
      <point x="278" y="150" type="curve" smooth="yes"/>
      <point x="278" y="215"/>
      <point x="198" y="268"/>
      <point x="149" y="280" type="curve"/>
      <point x="146" y="280"/>
      <point x="142" y="282"/>
      <point x="147" y="284" type="curve"/>
      <point x="201" y="299"/>
      <point x="278" y="347"/>
      <point x="278" y="413" type="curve" smooth="yes"/>
      <point x="278" y="470"/>
      <point x="260" y="516"/>
      <point x="260" y="583" type="curve" smooth="yes"/>
      <point x="260" y="655"/>
      <point x="321" y="672"/>
      <point x="421" y="679" type="curve" smooth="yes"/>
      <point x="442" y="680"/>
      <point x="466" y="684"/>
      <point x="466" y="697" type="curve" smooth="yes"/>
      <point x="466" y="707"/>
      <point x="454" y="715"/>
      <point x="438" y="715" type="curve" smooth="yes"/>
      <point x="309" y="711"/>
      <point x="171" y="677"/>
      <point x="171" y="582" type="curve" smooth="yes"/>
      <point x="171" y="512"/>
      <point x="189" y="466"/>
      <point x="189" y="404" type="curve" smooth="yes"/>
      <point x="189" y="346"/>
      <point x="153" y="318"/>
      <point x="96" y="305" type="curve" smooth="yes"/>
      <point x="75" y="300"/>
      <point x="68" y="291"/>
      <point x="68" y="282" type="curve" smooth="yes"/>
      <point x="68" y="272"/>
      <point x="77" y="263"/>
      <point x="95" y="260" type="curve" smooth="yes"/>
      <point x="148" y="249"/>
      <point x="189" y="217"/>
      <point x="189" y="159" type="curve" smooth="yes"/>
      <point x="189" y="97"/>
      <point x="171" y="51"/>
      <point x="171" y="-20" type="curve" smooth="yes"/>
      <point x="171" y="-114"/>
      <point x="308" y="-148"/>
      <point x="437" y="-152" type="curve" smooth="yes"/>
      <point x="452" y="-152"/>
      <point x="465" y="-144"/>
    </contour>
  </outline>
</glyph>
<glyph name="asciitilde" format="1">
  <advance width="684"/>
  <unicode hex="007E"/>
  <outline>
    <contour>
      <point x="616" y="360" type="curve" smooth="yes"/>
      <point x="616" y="375"/>
      <point x="595" y="383"/>
      <point x="588" y="383" type="curve" smooth="yes"/>
      <point x="582" y="383"/>
      <point x="523" y="320"/>
      <point x="461" y="320" type="curve" smooth="yes"/>
      <point x="424" y="320"/>
      <point x="390" y="333"/>
      <point x="354" y="349" type="curve" smooth="yes"/>
      <point x="319" y="365"/>
      <point x="281" y="382"/>
      <point x="234" y="382" type="curve" smooth="yes"/>
      <point x="138" y="382"/>
      <point x="68" y="307"/>
      <point x="68" y="280" type="curve" smooth="yes"/>
      <point x="68" y="272"/>
      <point x="83" y="263"/>
      <point x="94" y="263" type="curve" smooth="yes"/>
      <point x="101" y="263"/>
      <point x="151" y="318"/>
      <point x="219" y="318" type="curve" smooth="yes"/>
      <point x="259" y="318"/>
      <point x="296" y="305"/>
      <point x="333" y="290" type="curve" smooth="yes"/>
      <point x="373" y="275"/>
      <point x="413" y="258"/>
      <point x="461" y="258" type="curve" smooth="yes"/>
      <point x="528" y="258"/>
      <point x="616" y="319"/>
    </contour>
  </outline>
</glyph>
